<mxfile host="app.diagrams.net" agent="Mozilla/5.0 (Windows NT 10.0; Win64; x64) AppleWebKit/537.36 (KHTML, like Gecko) Chrome/133.0.0.0 Safari/537.36" version="26.2.7">
  <diagram id="07fea595-8f29-1299-0266-81d95cde20df" name="Page-1">
    <mxGraphModel dx="1835" dy="1767" grid="1" gridSize="10" guides="1" tooltips="1" connect="1" arrows="1" fold="1" page="1" pageScale="1" pageWidth="1169" pageHeight="827" background="#ffffff" math="0" shadow="0">
      <root>
        <mxCell id="0" />
        <mxCell id="1" parent="0" />
        <mxCell id="Be1LUev9KxpT6tyGAsN_-217" value="Qui trình xử lý nhập học" style="swimlane;childLayout=stackLayout;resizeParent=1;resizeParentMax=0;startSize=20;html=1;" parent="1" vertex="1">
          <mxGeometry x="280" y="-700" width="1090" height="1000" as="geometry">
            <mxRectangle x="260.00000000000045" y="-620" width="60" height="30" as="alternateBounds" />
          </mxGeometry>
        </mxCell>
        <mxCell id="Be1LUev9KxpT6tyGAsN_-218" value="Sinh Viên" style="swimlane;startSize=20;html=1;" parent="Be1LUev9KxpT6tyGAsN_-217" vertex="1">
          <mxGeometry y="20" width="330" height="980" as="geometry" />
        </mxCell>
        <mxCell id="Be1LUev9KxpT6tyGAsN_-221" value="" style="ellipse;html=1;shape=startState;fillColor=#dae8fc;strokeColor=#6c8ebf;" parent="Be1LUev9KxpT6tyGAsN_-218" vertex="1">
          <mxGeometry x="20" y="65" width="30" height="30" as="geometry" />
        </mxCell>
        <mxCell id="Be1LUev9KxpT6tyGAsN_-223" value="Hồ sơ sinh viên" style="shape=document;whiteSpace=wrap;html=1;boundedLbl=1;fillColor=#fff2cc;strokeColor=#d6b656;" parent="Be1LUev9KxpT6tyGAsN_-218" vertex="1">
          <mxGeometry x="110" y="40" width="120" height="80" as="geometry" />
        </mxCell>
        <mxCell id="Be1LUev9KxpT6tyGAsN_-224" value="" style="endArrow=none;html=1;rounded=0;exitX=1;exitY=0.5;exitDx=0;exitDy=0;entryX=0;entryY=0.5;entryDx=0;entryDy=0;" parent="Be1LUev9KxpT6tyGAsN_-218" source="Be1LUev9KxpT6tyGAsN_-221" target="Be1LUev9KxpT6tyGAsN_-223" edge="1">
          <mxGeometry width="50" height="50" relative="1" as="geometry">
            <mxPoint x="80" y="150" as="sourcePoint" />
            <mxPoint x="130" y="100" as="targetPoint" />
          </mxGeometry>
        </mxCell>
        <mxCell id="Be1LUev9KxpT6tyGAsN_-228" value="Cập nhật hồ sơ" style="rounded=1;whiteSpace=wrap;html=1;fillColor=#dae8fc;strokeColor=#6c8ebf;" parent="Be1LUev9KxpT6tyGAsN_-218" vertex="1">
          <mxGeometry x="110" y="150" width="120" height="50" as="geometry" />
        </mxCell>
        <mxCell id="Be1LUev9KxpT6tyGAsN_-229" value="Hồ sơ sinh viên" style="shape=document;whiteSpace=wrap;html=1;boundedLbl=1;fillColor=#fff2cc;strokeColor=#d6b656;" parent="Be1LUev9KxpT6tyGAsN_-218" vertex="1">
          <mxGeometry x="110" y="240" width="120" height="60" as="geometry" />
        </mxCell>
        <mxCell id="Be1LUev9KxpT6tyGAsN_-242" value="Biên nhận hồ sơ" style="shape=document;whiteSpace=wrap;html=1;boundedLbl=1;fillColor=#fff2cc;strokeColor=#d6b656;" parent="Be1LUev9KxpT6tyGAsN_-218" vertex="1">
          <mxGeometry x="30" y="355" width="120" height="60" as="geometry" />
        </mxCell>
        <mxCell id="Be1LUev9KxpT6tyGAsN_-243" value="Nộp giấy vào lớp" style="rounded=1;whiteSpace=wrap;html=1;fillColor=#dae8fc;strokeColor=#6c8ebf;" parent="Be1LUev9KxpT6tyGAsN_-218" vertex="1">
          <mxGeometry x="30" y="480" width="120" height="50" as="geometry" />
        </mxCell>
        <mxCell id="Be1LUev9KxpT6tyGAsN_-244" value="Biên nhận hồ sơ" style="shape=document;whiteSpace=wrap;html=1;boundedLbl=1;fillColor=#fff2cc;strokeColor=#d6b656;" parent="Be1LUev9KxpT6tyGAsN_-218" vertex="1">
          <mxGeometry x="30" y="625" width="120" height="60" as="geometry" />
        </mxCell>
        <mxCell id="Be1LUev9KxpT6tyGAsN_-245" value="" style="ellipse;html=1;shape=endState;fillColor=#b1ddf0;strokeColor=#10739e;" parent="Be1LUev9KxpT6tyGAsN_-218" vertex="1">
          <mxGeometry x="75" y="730" width="30" height="30" as="geometry" />
        </mxCell>
        <mxCell id="Be1LUev9KxpT6tyGAsN_-261" value="Bussiness Process Model" style="shape=table;startSize=20;container=1;collapsible=0;childLayout=tableLayout;rounded=1;swimlaneLine=1;perimeterSpacing=14;arcSize=50;" parent="Be1LUev9KxpT6tyGAsN_-218" vertex="1">
          <mxGeometry x="10" y="830" width="210" height="140" as="geometry" />
        </mxCell>
        <mxCell id="Be1LUev9KxpT6tyGAsN_-262" value="" style="shape=tableRow;horizontal=0;startSize=0;swimlaneHead=0;swimlaneBody=0;strokeColor=inherit;top=0;left=0;bottom=0;right=0;collapsible=0;dropTarget=0;fillColor=none;points=[[0,0.5],[1,0.5]];portConstraint=eastwest;" parent="Be1LUev9KxpT6tyGAsN_-261" vertex="1">
          <mxGeometry y="20" width="210" height="19" as="geometry" />
        </mxCell>
        <mxCell id="Be1LUev9KxpT6tyGAsN_-263" value="Model: Hệ thống quản lý sinh viên" style="shape=partialRectangle;html=1;whiteSpace=wrap;connectable=0;strokeColor=inherit;overflow=hidden;fillColor=none;top=0;left=0;bottom=0;right=0;pointerEvents=1;align=left;" parent="Be1LUev9KxpT6tyGAsN_-262" vertex="1">
          <mxGeometry width="210" height="19" as="geometry">
            <mxRectangle width="210" height="19" as="alternateBounds" />
          </mxGeometry>
        </mxCell>
        <mxCell id="Be1LUev9KxpT6tyGAsN_-264" value="" style="shape=tableRow;horizontal=0;startSize=0;swimlaneHead=0;swimlaneBody=0;strokeColor=inherit;top=0;left=0;bottom=0;right=0;collapsible=0;dropTarget=0;fillColor=none;points=[[0,0.5],[1,0.5]];portConstraint=eastwest;" parent="Be1LUev9KxpT6tyGAsN_-261" vertex="1">
          <mxGeometry y="39" width="210" height="22" as="geometry" />
        </mxCell>
        <mxCell id="Be1LUev9KxpT6tyGAsN_-265" value="Package:" style="shape=partialRectangle;html=1;whiteSpace=wrap;connectable=0;strokeColor=inherit;overflow=hidden;fillColor=none;top=0;left=0;bottom=0;right=0;pointerEvents=1;align=left;" parent="Be1LUev9KxpT6tyGAsN_-264" vertex="1">
          <mxGeometry width="210" height="22" as="geometry">
            <mxRectangle width="210" height="22" as="alternateBounds" />
          </mxGeometry>
        </mxCell>
        <mxCell id="Be1LUev9KxpT6tyGAsN_-266" value="" style="shape=tableRow;horizontal=0;startSize=0;swimlaneHead=0;swimlaneBody=0;strokeColor=inherit;top=0;left=0;bottom=0;right=0;collapsible=0;dropTarget=0;fillColor=none;points=[[0,0.5],[1,0.5]];portConstraint=eastwest;" parent="Be1LUev9KxpT6tyGAsN_-261" vertex="1">
          <mxGeometry y="61" width="210" height="19" as="geometry" />
        </mxCell>
        <mxCell id="Be1LUev9KxpT6tyGAsN_-267" value="Diagram: Tiếp nhận và xử lý nhập học&lt;span style=&quot;white-space: pre;&quot;&gt;&#x9;&lt;/span&gt;" style="shape=partialRectangle;html=1;whiteSpace=wrap;connectable=0;strokeColor=inherit;overflow=hidden;fillColor=none;top=0;left=0;bottom=0;right=0;pointerEvents=1;align=left;" parent="Be1LUev9KxpT6tyGAsN_-266" vertex="1">
          <mxGeometry width="210" height="19" as="geometry">
            <mxRectangle width="210" height="19" as="alternateBounds" />
          </mxGeometry>
        </mxCell>
        <mxCell id="Be1LUev9KxpT6tyGAsN_-268" value="" style="shape=tableRow;horizontal=0;startSize=0;swimlaneHead=0;swimlaneBody=0;strokeColor=inherit;top=0;left=0;bottom=0;right=0;collapsible=0;dropTarget=0;fillColor=none;points=[[0,0.5],[1,0.5]];portConstraint=eastwest;" parent="Be1LUev9KxpT6tyGAsN_-261" vertex="1">
          <mxGeometry y="80" width="210" height="19" as="geometry" />
        </mxCell>
        <mxCell id="Be1LUev9KxpT6tyGAsN_-269" value="Author: Do Phuc Thuan&amp;nbsp;&amp;nbsp;&lt;span style=&quot;white-space: pre;&quot;&gt;&#x9;&lt;/span&gt;Date: 21/2/2025" style="shape=partialRectangle;html=1;whiteSpace=wrap;connectable=0;strokeColor=inherit;overflow=hidden;fillColor=none;top=0;left=0;bottom=0;right=0;pointerEvents=1;align=left;" parent="Be1LUev9KxpT6tyGAsN_-268" vertex="1">
          <mxGeometry width="210" height="19" as="geometry">
            <mxRectangle width="210" height="19" as="alternateBounds" />
          </mxGeometry>
        </mxCell>
        <mxCell id="Be1LUev9KxpT6tyGAsN_-270" value="" style="shape=tableRow;horizontal=0;startSize=0;swimlaneHead=0;swimlaneBody=0;strokeColor=inherit;top=0;left=0;bottom=0;right=0;collapsible=0;dropTarget=0;fillColor=none;points=[[0,0.5],[1,0.5]];portConstraint=eastwest;" parent="Be1LUev9KxpT6tyGAsN_-261" vertex="1">
          <mxGeometry y="99" width="210" height="22" as="geometry" />
        </mxCell>
        <mxCell id="Be1LUev9KxpT6tyGAsN_-271" value="Version: 1.0" style="shape=partialRectangle;html=1;whiteSpace=wrap;connectable=0;strokeColor=inherit;overflow=hidden;fillColor=none;top=0;left=0;bottom=0;right=0;pointerEvents=1;align=left;" parent="Be1LUev9KxpT6tyGAsN_-270" vertex="1">
          <mxGeometry width="210" height="22" as="geometry">
            <mxRectangle width="210" height="22" as="alternateBounds" />
          </mxGeometry>
        </mxCell>
        <mxCell id="Be1LUev9KxpT6tyGAsN_-272" value="" style="shape=tableRow;horizontal=0;startSize=0;swimlaneHead=0;swimlaneBody=0;strokeColor=inherit;top=0;left=0;bottom=0;right=0;collapsible=0;dropTarget=0;fillColor=none;points=[[0,0.5],[1,0.5]];portConstraint=eastwest;" parent="Be1LUev9KxpT6tyGAsN_-261" vertex="1">
          <mxGeometry y="121" width="210" height="19" as="geometry" />
        </mxCell>
        <mxCell id="Be1LUev9KxpT6tyGAsN_-273" value="&amp;nbsp; &amp;nbsp; &amp;nbsp;" style="shape=partialRectangle;html=1;whiteSpace=wrap;connectable=0;strokeColor=inherit;overflow=hidden;fillColor=none;top=0;left=0;bottom=0;right=0;pointerEvents=1;align=left;" parent="Be1LUev9KxpT6tyGAsN_-272" vertex="1">
          <mxGeometry width="210" height="19" as="geometry">
            <mxRectangle width="210" height="19" as="alternateBounds" />
          </mxGeometry>
        </mxCell>
        <mxCell id="Be1LUev9KxpT6tyGAsN_-293" value="" style="endArrow=classic;html=1;rounded=0;exitX=0.5;exitY=0;exitDx=0;exitDy=0;entryX=0.5;entryY=1;entryDx=0;entryDy=0;" parent="Be1LUev9KxpT6tyGAsN_-218" source="Be1LUev9KxpT6tyGAsN_-229" target="Be1LUev9KxpT6tyGAsN_-228" edge="1">
          <mxGeometry width="50" height="50" relative="1" as="geometry">
            <mxPoint x="240" y="185" as="sourcePoint" />
            <mxPoint x="420" y="103" as="targetPoint" />
          </mxGeometry>
        </mxCell>
        <mxCell id="Be1LUev9KxpT6tyGAsN_-219" value="Phòng đào tạo" style="swimlane;startSize=20;html=1;" parent="Be1LUev9KxpT6tyGAsN_-217" vertex="1">
          <mxGeometry x="330" y="20" width="430" height="980" as="geometry" />
        </mxCell>
        <mxCell id="Be1LUev9KxpT6tyGAsN_-226" value="Tiếp nhận hồ sơ" style="rounded=1;whiteSpace=wrap;html=1;fillColor=#dae8fc;strokeColor=#6c8ebf;" parent="Be1LUev9KxpT6tyGAsN_-219" vertex="1">
          <mxGeometry x="80" y="55" width="120" height="50" as="geometry" />
        </mxCell>
        <mxCell id="Be1LUev9KxpT6tyGAsN_-227" value="Tiếp nhận hồ sơ" style="rhombus;whiteSpace=wrap;html=1;fillColor=#d5e8d4;strokeColor=#82b366;" parent="Be1LUev9KxpT6tyGAsN_-219" vertex="1">
          <mxGeometry x="75" y="140" width="130" height="70" as="geometry" />
        </mxCell>
        <mxCell id="Be1LUev9KxpT6tyGAsN_-230" value="Hồ sơ sinh viên" style="shape=document;whiteSpace=wrap;html=1;boundedLbl=1;fillColor=#fff2cc;strokeColor=#d6b656;" parent="Be1LUev9KxpT6tyGAsN_-219" vertex="1">
          <mxGeometry x="80" y="240" width="120" height="60" as="geometry" />
        </mxCell>
        <mxCell id="Be1LUev9KxpT6tyGAsN_-301" style="edgeStyle=orthogonalEdgeStyle;rounded=0;orthogonalLoop=1;jettySize=auto;html=1;entryX=0.5;entryY=0;entryDx=0;entryDy=0;" parent="Be1LUev9KxpT6tyGAsN_-219" source="Be1LUev9KxpT6tyGAsN_-237" target="Be1LUev9KxpT6tyGAsN_-241" edge="1">
          <mxGeometry relative="1" as="geometry" />
        </mxCell>
        <mxCell id="Be1LUev9KxpT6tyGAsN_-237" value="Nhập hồ sơ" style="rounded=1;whiteSpace=wrap;html=1;fillColor=#f8cecc;strokeColor=#b85450;" parent="Be1LUev9KxpT6tyGAsN_-219" vertex="1">
          <mxGeometry x="80" y="360" width="120" height="50" as="geometry" />
        </mxCell>
        <mxCell id="Be1LUev9KxpT6tyGAsN_-298" value="" style="edgeStyle=orthogonalEdgeStyle;rounded=0;orthogonalLoop=1;jettySize=auto;html=1;dashed=1;dashPattern=8 8;" parent="Be1LUev9KxpT6tyGAsN_-219" source="Be1LUev9KxpT6tyGAsN_-238" target="Be1LUev9KxpT6tyGAsN_-239" edge="1">
          <mxGeometry relative="1" as="geometry">
            <Array as="points">
              <mxPoint x="340" y="480" />
              <mxPoint x="340" y="480" />
            </Array>
          </mxGeometry>
        </mxCell>
        <mxCell id="Be1LUev9KxpT6tyGAsN_-238" value="Lý lịch sinh viên" style="shape=document;whiteSpace=wrap;html=1;boundedLbl=1;fillColor=#fff2cc;strokeColor=#d6b656;" parent="Be1LUev9KxpT6tyGAsN_-219" vertex="1">
          <mxGeometry x="280" y="357.5" width="120" height="55" as="geometry" />
        </mxCell>
        <mxCell id="Be1LUev9KxpT6tyGAsN_-239" value="CSDL QLSV :1" style="shape=cylinder3;whiteSpace=wrap;html=1;boundedLbl=1;backgroundOutline=1;size=15;fillColor=#bac8d3;strokeColor=#23445d;" parent="Be1LUev9KxpT6tyGAsN_-219" vertex="1">
          <mxGeometry x="270" y="500" width="120" height="80" as="geometry" />
        </mxCell>
        <mxCell id="Be1LUev9KxpT6tyGAsN_-241" value="" style="ellipse;html=1;shape=endState;fillColor=#b1ddf0;strokeColor=#10739e;" parent="Be1LUev9KxpT6tyGAsN_-219" vertex="1">
          <mxGeometry x="125" y="590" width="30" height="30" as="geometry" />
        </mxCell>
        <mxCell id="Be1LUev9KxpT6tyGAsN_-283" value="Giấy chứng nhận sinh viên" style="shape=document;whiteSpace=wrap;html=1;boundedLbl=1;fillColor=#fff2cc;strokeColor=#d6b656;" parent="Be1LUev9KxpT6tyGAsN_-219" vertex="1">
          <mxGeometry x="150" y="710" width="110" height="70" as="geometry" />
        </mxCell>
        <mxCell id="Be1LUev9KxpT6tyGAsN_-289" value="" style="endArrow=classic;html=1;rounded=0;exitX=0.5;exitY=1;exitDx=0;exitDy=0;entryX=0.5;entryY=0;entryDx=0;entryDy=0;" parent="Be1LUev9KxpT6tyGAsN_-219" source="Be1LUev9KxpT6tyGAsN_-226" target="Be1LUev9KxpT6tyGAsN_-227" edge="1">
          <mxGeometry width="50" height="50" relative="1" as="geometry">
            <mxPoint x="-90" y="90" as="sourcePoint" />
            <mxPoint x="90" y="90" as="targetPoint" />
          </mxGeometry>
        </mxCell>
        <mxCell id="Be1LUev9KxpT6tyGAsN_-294" value="" style="endArrow=none;html=1;rounded=0;entryX=0.5;entryY=0;entryDx=0;entryDy=0;exitX=0.5;exitY=1;exitDx=0;exitDy=0;" parent="Be1LUev9KxpT6tyGAsN_-219" source="Be1LUev9KxpT6tyGAsN_-227" target="Be1LUev9KxpT6tyGAsN_-230" edge="1">
          <mxGeometry width="50" height="50" relative="1" as="geometry">
            <mxPoint x="85" y="185" as="sourcePoint" />
            <mxPoint x="-90" y="280" as="targetPoint" />
          </mxGeometry>
        </mxCell>
        <mxCell id="Be1LUev9KxpT6tyGAsN_-295" value="" style="endArrow=classic;html=1;rounded=0;exitX=0.494;exitY=0.86;exitDx=0;exitDy=0;exitPerimeter=0;entryX=0.5;entryY=0;entryDx=0;entryDy=0;" parent="Be1LUev9KxpT6tyGAsN_-219" source="Be1LUev9KxpT6tyGAsN_-230" target="Be1LUev9KxpT6tyGAsN_-237" edge="1">
          <mxGeometry width="50" height="50" relative="1" as="geometry">
            <mxPoint x="-50" y="410" as="sourcePoint" />
            <mxPoint y="360" as="targetPoint" />
          </mxGeometry>
        </mxCell>
        <mxCell id="Be1LUev9KxpT6tyGAsN_-297" value="" style="endArrow=none;html=1;rounded=0;exitX=0;exitY=0.5;exitDx=0;exitDy=0;entryX=1;entryY=0.5;entryDx=0;entryDy=0;" parent="Be1LUev9KxpT6tyGAsN_-219" source="Be1LUev9KxpT6tyGAsN_-238" target="Be1LUev9KxpT6tyGAsN_-237" edge="1">
          <mxGeometry width="50" height="50" relative="1" as="geometry">
            <mxPoint x="-170" y="395" as="sourcePoint" />
            <mxPoint x="90" y="395" as="targetPoint" />
          </mxGeometry>
        </mxCell>
        <mxCell id="Be1LUev9KxpT6tyGAsN_-300" value="" style="endArrow=classic;html=1;rounded=0;exitX=0.5;exitY=1;exitDx=0;exitDy=0;entryX=0;entryY=0.5;entryDx=0;entryDy=0;entryPerimeter=0;dashed=1;dashPattern=8 8;" parent="Be1LUev9KxpT6tyGAsN_-219" source="Be1LUev9KxpT6tyGAsN_-237" target="Be1LUev9KxpT6tyGAsN_-239" edge="1">
          <mxGeometry width="50" height="50" relative="1" as="geometry">
            <mxPoint x="-50" y="510" as="sourcePoint" />
            <mxPoint y="460" as="targetPoint" />
          </mxGeometry>
        </mxCell>
        <mxCell id="Be1LUev9KxpT6tyGAsN_-240" value="Biên nhận hồ sơ" style="shape=document;whiteSpace=wrap;html=1;boundedLbl=1;fillColor=#fff2cc;strokeColor=#d6b656;" parent="Be1LUev9KxpT6tyGAsN_-219" vertex="1">
          <mxGeometry x="155" y="440" width="100" height="60" as="geometry" />
        </mxCell>
        <mxCell id="Be1LUev9KxpT6tyGAsN_-220" value="Giáo vụ khoa" style="swimlane;startSize=20;html=1;" parent="Be1LUev9KxpT6tyGAsN_-217" vertex="1">
          <mxGeometry x="760" y="20" width="330" height="980" as="geometry" />
        </mxCell>
        <mxCell id="Be1LUev9KxpT6tyGAsN_-284" value="Lý lịch sinh viên" style="shape=document;whiteSpace=wrap;html=1;boundedLbl=1;fillColor=#fff2cc;strokeColor=#d6b656;" parent="Be1LUev9KxpT6tyGAsN_-220" vertex="1">
          <mxGeometry x="129" y="512.5" width="120" height="55" as="geometry" />
        </mxCell>
        <mxCell id="Be1LUev9KxpT6tyGAsN_-285" value="Cập nhật danh sách lớp" style="rounded=1;whiteSpace=wrap;html=1;fillColor=#f8cecc;strokeColor=#b85450;" parent="Be1LUev9KxpT6tyGAsN_-220" vertex="1">
          <mxGeometry x="129" y="720" width="151" height="50" as="geometry" />
        </mxCell>
        <mxCell id="Be1LUev9KxpT6tyGAsN_-286" value="CSDL QLSV :2" style="shape=cylinder3;whiteSpace=wrap;html=1;boundedLbl=1;backgroundOutline=1;size=15;fillColor=#bac8d3;strokeColor=#23445d;" parent="Be1LUev9KxpT6tyGAsN_-220" vertex="1">
          <mxGeometry x="144.5" y="860" width="120" height="80" as="geometry" />
        </mxCell>
        <mxCell id="Be1LUev9KxpT6tyGAsN_-287" value="Tiếp nhận giấy vào lớp" style="rounded=1;whiteSpace=wrap;html=1;fillColor=#dae8fc;strokeColor=#6c8ebf;" parent="Be1LUev9KxpT6tyGAsN_-220" vertex="1">
          <mxGeometry x="20" y="630" width="120" height="50" as="geometry" />
        </mxCell>
        <mxCell id="Be1LUev9KxpT6tyGAsN_-304" value="" style="endArrow=classic;html=1;rounded=0;exitX=0.592;exitY=0.781;exitDx=0;exitDy=0;exitPerimeter=0;entryX=0.472;entryY=-0.023;entryDx=0;entryDy=0;entryPerimeter=0;dashed=1;dashPattern=12 12;" parent="Be1LUev9KxpT6tyGAsN_-220" source="Be1LUev9KxpT6tyGAsN_-284" target="Be1LUev9KxpT6tyGAsN_-285" edge="1">
          <mxGeometry width="50" height="50" relative="1" as="geometry">
            <mxPoint x="110" y="610" as="sourcePoint" />
            <mxPoint x="160" y="560" as="targetPoint" />
          </mxGeometry>
        </mxCell>
        <mxCell id="Be1LUev9KxpT6tyGAsN_-305" value="" style="endArrow=classic;html=1;rounded=0;exitX=0.5;exitY=1;exitDx=0;exitDy=0;entryX=0.5;entryY=0;entryDx=0;entryDy=0;entryPerimeter=0;dashed=1;dashPattern=8 8;" parent="Be1LUev9KxpT6tyGAsN_-220" source="Be1LUev9KxpT6tyGAsN_-285" target="Be1LUev9KxpT6tyGAsN_-286" edge="1">
          <mxGeometry width="50" height="50" relative="1" as="geometry">
            <mxPoint x="130" y="850" as="sourcePoint" />
            <mxPoint x="180" y="800" as="targetPoint" />
          </mxGeometry>
        </mxCell>
        <mxCell id="Be1LUev9KxpT6tyGAsN_-309" value="" style="endArrow=classic;html=1;rounded=0;exitX=0.5;exitY=1;exitDx=0;exitDy=0;entryX=0;entryY=0;entryDx=0;entryDy=0;" parent="Be1LUev9KxpT6tyGAsN_-220" source="Be1LUev9KxpT6tyGAsN_-287" target="Be1LUev9KxpT6tyGAsN_-285" edge="1">
          <mxGeometry width="50" height="50" relative="1" as="geometry">
            <mxPoint x="-140" y="640" as="sourcePoint" />
            <mxPoint x="-90" y="590" as="targetPoint" />
          </mxGeometry>
        </mxCell>
        <mxCell id="Be1LUev9KxpT6tyGAsN_-288" value="" style="endArrow=classic;html=1;rounded=0;exitX=1;exitY=0.5;exitDx=0;exitDy=0;entryX=0;entryY=0.5;entryDx=0;entryDy=0;" parent="Be1LUev9KxpT6tyGAsN_-217" source="Be1LUev9KxpT6tyGAsN_-223" target="Be1LUev9KxpT6tyGAsN_-226" edge="1">
          <mxGeometry width="50" height="50" relative="1" as="geometry">
            <mxPoint x="260" y="210" as="sourcePoint" />
            <mxPoint x="310" y="160" as="targetPoint" />
          </mxGeometry>
        </mxCell>
        <mxCell id="Be1LUev9KxpT6tyGAsN_-290" value="" style="endArrow=classic;html=1;rounded=0;exitX=1;exitY=0.5;exitDx=0;exitDy=0;entryX=0;entryY=0.75;entryDx=0;entryDy=0;" parent="Be1LUev9KxpT6tyGAsN_-217" source="Be1LUev9KxpT6tyGAsN_-228" target="Be1LUev9KxpT6tyGAsN_-226" edge="1">
          <mxGeometry width="50" height="50" relative="1" as="geometry">
            <mxPoint x="480" y="135" as="sourcePoint" />
            <mxPoint x="480" y="170" as="targetPoint" />
          </mxGeometry>
        </mxCell>
        <mxCell id="Be1LUev9KxpT6tyGAsN_-291" value="" style="endArrow=none;html=1;rounded=0;entryX=1;entryY=0.5;entryDx=0;entryDy=0;exitX=0;exitY=0.5;exitDx=0;exitDy=0;" parent="Be1LUev9KxpT6tyGAsN_-217" source="Be1LUev9KxpT6tyGAsN_-227" target="Be1LUev9KxpT6tyGAsN_-229" edge="1">
          <mxGeometry width="50" height="50" relative="1" as="geometry">
            <mxPoint x="400" y="200" as="sourcePoint" />
            <mxPoint x="120" y="110" as="targetPoint" />
          </mxGeometry>
        </mxCell>
        <mxCell id="Be1LUev9KxpT6tyGAsN_-296" value="" style="endArrow=none;html=1;rounded=0;exitX=1;exitY=0.5;exitDx=0;exitDy=0;entryX=0;entryY=0.5;entryDx=0;entryDy=0;" parent="Be1LUev9KxpT6tyGAsN_-217" source="Be1LUev9KxpT6tyGAsN_-242" target="Be1LUev9KxpT6tyGAsN_-237" edge="1">
          <mxGeometry width="50" height="50" relative="1" as="geometry">
            <mxPoint x="280" y="430" as="sourcePoint" />
            <mxPoint x="330" y="380" as="targetPoint" />
          </mxGeometry>
        </mxCell>
        <mxCell id="Be1LUev9KxpT6tyGAsN_-302" value="" style="endArrow=none;dashed=1;html=1;rounded=0;exitX=1;exitY=0.5;exitDx=0;exitDy=0;exitPerimeter=0;entryX=0;entryY=0.5;entryDx=0;entryDy=0;dashPattern=8 8;" parent="Be1LUev9KxpT6tyGAsN_-217" source="Be1LUev9KxpT6tyGAsN_-239" target="Be1LUev9KxpT6tyGAsN_-284" edge="1">
          <mxGeometry width="50" height="50" relative="1" as="geometry">
            <mxPoint x="770" y="580" as="sourcePoint" />
            <mxPoint x="820" y="530" as="targetPoint" />
          </mxGeometry>
        </mxCell>
        <mxCell id="Be1LUev9KxpT6tyGAsN_-306" value="" style="endArrow=none;html=1;rounded=0;entryX=0;entryY=0.5;entryDx=0;entryDy=0;exitX=1;exitY=0.5;exitDx=0;exitDy=0;" parent="Be1LUev9KxpT6tyGAsN_-217" source="Be1LUev9KxpT6tyGAsN_-283" target="Be1LUev9KxpT6tyGAsN_-285" edge="1">
          <mxGeometry width="50" height="50" relative="1" as="geometry">
            <mxPoint x="660" y="770" as="sourcePoint" />
            <mxPoint x="710" y="720" as="targetPoint" />
          </mxGeometry>
        </mxCell>
        <mxCell id="Be1LUev9KxpT6tyGAsN_-307" value="" style="endArrow=classic;html=1;rounded=0;exitX=0;exitY=0.5;exitDx=0;exitDy=0;entryX=1;entryY=0.5;entryDx=0;entryDy=0;" parent="Be1LUev9KxpT6tyGAsN_-217" source="Be1LUev9KxpT6tyGAsN_-283" target="Be1LUev9KxpT6tyGAsN_-245" edge="1">
          <mxGeometry width="50" height="50" relative="1" as="geometry">
            <mxPoint x="310" y="820" as="sourcePoint" />
            <mxPoint x="360" y="770" as="targetPoint" />
          </mxGeometry>
        </mxCell>
        <mxCell id="Be1LUev9KxpT6tyGAsN_-308" value="" style="endArrow=classic;html=1;rounded=0;exitX=1;exitY=0.5;exitDx=0;exitDy=0;entryX=0;entryY=0.5;entryDx=0;entryDy=0;" parent="Be1LUev9KxpT6tyGAsN_-217" source="Be1LUev9KxpT6tyGAsN_-244" target="Be1LUev9KxpT6tyGAsN_-287" edge="1">
          <mxGeometry width="50" height="50" relative="1" as="geometry">
            <mxPoint x="250" y="510" as="sourcePoint" />
            <mxPoint x="300" y="460" as="targetPoint" />
          </mxGeometry>
        </mxCell>
        <mxCell id="Be1LUev9KxpT6tyGAsN_-292" value="Business Error" style="text;html=1;align=center;verticalAlign=middle;whiteSpace=wrap;rounded=0;" parent="1" vertex="1">
          <mxGeometry x="530" y="-480" width="60" height="30" as="geometry" />
        </mxCell>
      </root>
    </mxGraphModel>
  </diagram>
</mxfile>
